<!-- <?xml version="1.0" encoding="UTF-8"?> -->
<svg xmlns="http://www.w3.org/2000/svg">
  
  <symbol id="fb" width="10" height="18" viewBox="0 0 10 18">
    <path d="M8.71875 9H6.375V16H3.25V9H0.6875V6.125H3.25V3.90625C3.25 1.40625 4.75 0 7.03125 0C8.125 0 9.28125 0.21875 9.28125 0.21875V2.6875H8C6.75 2.6875 6.375 3.4375 6.375 4.25V6.125H9.15625L8.71875 9Z"/>
  </symbol>

  <symbol id="twitter">
    <path d="M14.3438 3.75C14.3438 3.90625 14.3438 4.03125 14.3438 4.1875C14.3438 8.53125 11.0625 13.5 5.03125 13.5C3.15625 13.5 1.4375 12.9688 0 12.0312C0.25 12.0625 0.5 12.0938 0.78125 12.0938C2.3125 12.0938 3.71875 11.5625 4.84375 10.6875C3.40625 10.6562 2.1875 9.71875 1.78125 8.40625C2 8.4375 2.1875 8.46875 2.40625 8.46875C2.6875 8.46875 3 8.40625 3.25 8.34375C1.75 8.03125 0.625 6.71875 0.625 5.125V5.09375C1.0625 5.34375 1.59375 5.46875 2.125 5.5C1.21875 4.90625 0.65625 3.90625 0.65625 2.78125C0.65625 2.15625 0.8125 1.59375 1.09375 1.125C2.71875 3.09375 5.15625 4.40625 7.875 4.5625C7.8125 4.3125 7.78125 4.0625 7.78125 3.8125C7.78125 2 9.25 0.53125 11.0625 0.53125C12 0.53125 12.8438 0.90625 13.4688 1.5625C14.1875 1.40625 14.9062 1.125 15.5312 0.75C15.2812 1.53125 14.7812 2.15625 14.0938 2.5625C14.75 2.5 15.4062 2.3125 15.9688 2.0625C15.5312 2.71875 14.9688 3.28125 14.3438 3.75Z"/>
  </symbol>

  <symbol id="ins">
    <path d="M8 3.40625C9.96875 3.40625 11.5938 5.03125 11.5938 7C11.5938 9 9.96875 10.5938 8 10.5938C6 10.5938 4.40625 9 4.40625 7C4.40625 5.03125 6 3.40625 8 3.40625ZM8 9.34375C9.28125 9.34375 10.3125 8.3125 10.3125 7C10.3125 5.71875 9.28125 4.6875 8 4.6875C6.6875 4.6875 5.65625 5.71875 5.65625 7C5.65625 8.3125 6.71875 9.34375 8 9.34375ZM12.5625 3.28125C12.5625 3.75 12.1875 4.125 11.7188 4.125C11.25 4.125 10.875 3.75 10.875 3.28125C10.875 2.8125 11.25 2.4375 11.7188 2.4375C12.1875 2.4375 12.5625 2.8125 12.5625 3.28125ZM14.9375 4.125C15 5.28125 15 8.75 14.9375 9.90625C14.875 11.0312 14.625 12 13.8125 12.8438C13 13.6562 12 13.9062 10.875 13.9688C9.71875 14.0312 6.25 14.0312 5.09375 13.9688C3.96875 13.9062 3 13.6562 2.15625 12.8438C1.34375 12 1.09375 11.0312 1.03125 9.90625C0.96875 8.75 0.96875 5.28125 1.03125 4.125C1.09375 3 1.34375 2 2.15625 1.1875C3 0.375 3.96875 0.125 5.09375 0.0625C6.25 0 9.71875 0 10.875 0.0625C12 0.125 13 0.375 13.8125 1.1875C14.625 2 14.875 3 14.9375 4.125ZM13.4375 11.125C13.8125 10.2188 13.7188 8.03125 13.7188 7C13.7188 6 13.8125 3.8125 13.4375 2.875C13.1875 2.28125 12.7188 1.78125 12.125 1.5625C11.1875 1.1875 9 1.28125 8 1.28125C6.96875 1.28125 4.78125 1.1875 3.875 1.5625C3.25 1.8125 2.78125 2.28125 2.53125 2.875C2.15625 3.8125 2.25 6 2.25 7C2.25 8.03125 2.15625 10.2188 2.53125 11.125C2.78125 11.75 3.25 12.2188 3.875 12.4688C4.78125 12.8438 6.96875 12.75 8 12.75C9 12.75 11.1875 12.8438 12.125 12.4688C12.7188 12.2188 13.2188 11.75 13.4375 11.125Z"/>
  </symbol>

  <symbol id="arrow">
    <path d="M8.90479 1.11105C8.9606 1.16685 8.9885 1.23103 8.9885 1.30357C8.9885 1.37612 8.9606 1.44029 8.90479 1.49609L5.00412 5.39676C4.94832 5.45257 4.88415 5.48047 4.8116 5.48047C4.73906 5.48047 4.67488 5.45257 4.61908 5.39676L0.71841 1.49609C0.662606 1.44029 0.634705 1.37612 0.634705 1.30357C0.634705 1.23103 0.662606 1.16685 0.71841 1.11105L1.13694 0.692522C1.19274 0.636718 1.25691 0.608817 1.32946 0.608817C1.402 0.608817 1.46618 0.636718 1.52198 0.692522L4.8116 3.98214L8.10122 0.692522C8.15703 0.636718 8.2212 0.608817 8.29375 0.608817C8.36629 0.608817 8.43046 0.636718 8.48627 0.692522L8.90479 1.11105Z" fill="white"/>
  </symbol>

  <symbol id="arrow-left">
    <path d="M4.89844 1.25C4.89844 1.17969 4.86719 1.11719 4.82031 1.07031L4.42969 0.679687C4.38281 0.632812 4.3125 0.601562 4.25 0.601562C4.1875 0.601562 4.11719 0.632812 4.07031 0.679687L0.429688 4.32031C0.382813 4.36719 0.351563 4.4375 0.351563 4.5C0.351563 4.5625 0.382813 4.63281 0.429688 4.67969L4.07031 8.32031C4.11719 8.36719 4.1875 8.39844 4.25 8.39844C4.3125 8.39844 4.38281 8.36719 4.42969 8.32031L4.82031 7.92969C4.86719 7.88281 4.89844 7.8125 4.89844 7.75C4.89844 7.6875 4.86719 7.61719 4.82031 7.57031L1.75 4.5L4.82031 1.42969C4.86719 1.38281 4.89844 1.3125 4.89844 1.25Z" fill="white"/>
  </symbol>

  <symbol id="arrow-right">
    <path d="M4.64844 4.5C4.64844 4.4375 4.61719 4.36719 4.57031 4.32031L0.929688 0.679687C0.882813 0.632812 0.8125 0.601562 0.75 0.601562C0.6875 0.601562 0.617188 0.632812 0.570313 0.679687L0.179688 1.07031C0.132813 1.11719 0.101563 1.1875 0.101563 1.25C0.101563 1.3125 0.132813 1.38281 0.179688 1.42969L3.25 4.5L0.179688 7.57031C0.132813 7.61719 0.101563 7.6875 0.101563 7.75C0.101563 7.82031 0.132813 7.88281 0.179688 7.92969L0.570313 8.32031C0.617188 8.36719 0.6875 8.39844 0.75 8.39844C0.8125 8.39844 0.882813 8.36719 0.929688 8.32031L4.57031 4.67969C4.61719 4.63281 4.64844 4.5625 4.64844 4.5Z" fill="white"/>
  </symbol>

</svg>

